<svg width="32" height="32" viewBox="0 0 32 32" fill="none" xmlns="http://www.w3.org/2000/svg">
<path d="M23 14H9C7.67392 14 6.40215 14.5268 5.46447 15.4645C4.52678 16.4021 4 17.6739 4 19V25C4 26.3261 4.52678 27.5979 5.46447 28.5355C6.40215 29.4732 7.67392 30 9 30H23C24.3261 30 25.5979 29.4732 26.5355 28.5355C27.4732 27.5979 28 26.3261 28 25V19C28 17.6739 27.4732 16.4021 26.5355 15.4645C25.5979 14.5268 24.3261 14 23 14ZM16 26C15.2089 26 14.4355 25.7654 13.7777 25.3259C13.1199 24.8864 12.6072 24.2616 12.3045 23.5307C12.0017 22.7998 11.9225 21.9956 12.0769 21.2196C12.2312 20.4437 12.6122 19.731 13.1716 19.1716C13.731 18.6122 14.4437 18.2312 15.2196 18.0769C15.9956 17.9225 16.7998 18.0017 17.5307 18.3045C18.2616 18.6072 18.8864 19.1199 19.3259 19.7777C19.7654 20.4355 20 21.2089 20 22C20 23.0609 19.5786 24.0783 18.8284 24.8284C18.0783 25.5786 17.0609 26 16 26Z" fill="black"/>
<path d="M16 24C17.1046 24 18 23.1046 18 22C18 20.8954 17.1046 20 16 20C14.8954 20 14 20.8954 14 22C14 23.1046 14.8954 24 16 24Z" fill="black"/>
<path d="M16.71 2.29C16.617 2.19627 16.5064 2.12188 16.3846 2.07111C16.2627 2.02034 16.132 1.9942 16 1.9942C15.868 1.9942 15.7373 2.02034 15.6154 2.07111C15.4936 2.12188 15.383 2.19627 15.29 2.29L11.05 6.54C10.8564 6.72698 10.745 6.98321 10.7403 7.25232C10.7356 7.52144 10.838 7.78139 11.025 7.975C11.212 8.16861 11.4682 8.28001 11.7373 8.2847C12.0064 8.28939 12.2664 8.18698 12.46 8L15 5.41V11C15 11.2652 15.1054 11.5196 15.2929 11.7071C15.4804 11.8946 15.7348 12 16 12C16.2652 12 16.5196 11.8946 16.7071 11.7071C16.8946 11.5196 17 11.2652 17 11V5.41L19.54 8C19.7263 8.18474 19.9777 8.2889 20.24 8.29C20.3799 8.29761 20.5199 8.27573 20.6508 8.22577C20.7817 8.17581 20.9007 8.09889 21 8C21.1862 7.81264 21.2908 7.55919 21.2908 7.295C21.2908 7.03081 21.1862 6.77736 21 6.59L16.71 2.29Z" fill="black"/>
</svg>
