<svg width="312" height="312" viewBox="0 0 312 312" fill="none" xmlns="http://www.w3.org/2000/svg">
<mask id="mask0_1271_5668" style="mask-type:alpha" maskUnits="userSpaceOnUse" x="0" y="0" width="312" height="312">
<rect width="312" height="312" rx="40" fill="#C4C4C4"/>
</mask>
<g mask="url(#mask0_1271_5668)">
<path d="M58.6912 79.9426C78.7182 63.537 135.999 54.4785 162.135 52C151.014 57.729 131.6 78.7125 142.919 116.814C102.813 123.472 60.588 135.581 44.4887 140.804C40.8783 127.352 38.6642 96.3483 58.6912 79.9426Z" fill="#E5E5EE"/>
<path d="M58.6912 79.9426C78.7182 63.537 135.999 54.4785 162.135 52C151.014 57.729 131.6 78.7125 142.919 116.814C102.813 123.472 60.588 135.581 44.4887 140.804C40.8783 127.352 38.6642 96.3483 58.6912 79.9426Z" fill="url(#paint0_linear_1271_5668)" fill-opacity="0.36"/>
<path d="M53.5767 82.7268C54.2593 82.197 54.9731 81.7042 55.7127 81.2588C75.0609 68.4106 124.201 46.8496 183.331 53.1179C216.142 58.4475 219.374 128.374 216.888 162.671C213.408 191.786 215.098 245.279 249.699 226.329C232.995 244.095 198.494 254.458 183.331 257.419C149.774 273.457 83.8526 280.07 88.6252 178.215C93.1594 81.447 69.7825 72.7842 55.7127 81.2588C54.9545 81.7622 54.2421 82.2523 53.5767 82.7268Z" fill="#D2D2D2"/>
<path d="M53.5767 82.7268C54.2593 82.197 54.9731 81.7042 55.7127 81.2588C75.0609 68.4106 124.201 46.8496 183.331 53.1179C216.142 58.4475 219.374 128.374 216.888 162.671C213.408 191.786 215.098 245.279 249.699 226.329C232.995 244.095 198.494 254.458 183.331 257.419C149.774 273.457 83.8526 280.07 88.6252 178.215C93.1594 81.447 69.7825 72.7842 55.7127 81.2588C54.9545 81.7622 54.2421 82.2523 53.5767 82.7268Z" fill="url(#paint1_linear_1271_5668)"/>
<path d="M246.623 244.377C225.847 259.882 149 268.5 140 266.5C151.377 261.282 173.758 242.141 164.26 203.38C204.625 198.61 247.365 188.472 263.689 184C266.657 197.666 267.399 228.873 246.623 244.377Z" fill="#F1F1FA"/>
<path d="M246.623 244.377C225.847 259.882 149 268.5 140 266.5C151.377 261.282 173.758 242.141 164.26 203.38C204.625 198.61 247.365 188.472 263.689 184C266.657 197.666 267.399 228.873 246.623 244.377Z" fill="url(#paint2_linear_1271_5668)" fill-opacity="0.16"/>
<path d="M306 104.051C280.746 114.608 268.779 133.082 265.952 141C259.167 113.552 224.49 95.5464 208 89.9747C216.292 91.7342 224.019 83.6698 226.846 79.4177C248.99 77.3649 295.823 79.4177 306 104.051Z" fill="#B18AFF"/>
<path d="M270.664 102.291C268.677 105.806 261.789 107.339 255.115 104.051C248.442 100.763 242.923 94.1341 244.909 90.6198C246.896 87.1055 260.22 87.3319 266.894 90.6198C273.568 93.9076 272.65 98.777 270.664 102.291Z" fill="#7F3DFF"/>
<g style="mix-blend-mode:soft-light">
<path d="M306 104.051C280.746 114.608 268.779 133.082 265.952 141C259.167 113.552 224.49 95.5464 208 89.9747C216.292 91.7342 224.019 83.6698 226.846 79.4177C248.99 77.3649 295.823 79.4177 306 104.051Z" fill="url(#paint3_radial_1271_5668)" fill-opacity="0.64"/>
</g>
<path d="M74 204.821C70.4 220.421 59.1667 228.988 54 231.321C44.1667 226.488 6 212.321 6 212.321C10.8333 207.821 21.4 195.421 25 181.821C29.5 164.821 40.5 140.821 58.5 138.321C72.9 136.321 101.167 144.154 113.5 148.321C87 168.821 78.5 185.321 74 204.821Z" fill="#B18AFF"/>
<ellipse cx="58.6058" cy="175.023" rx="15.1661" ry="12.6384" transform="rotate(-46.5366 58.6058 175.023)" fill="#7F3DFF"/>
<g style="mix-blend-mode:soft-light">
<path d="M74 204.821C70.4 220.421 59.1667 228.988 54 231.321C44.1667 226.488 6 212.321 6 212.321C10.8333 207.821 21.4 195.421 25 181.821C29.5 164.821 40.5 140.821 58.5 138.321C72.9 136.321 101.167 144.154 113.5 148.321C87 168.821 78.5 185.321 74 204.821Z" fill="url(#paint4_linear_1271_5668)" fill-opacity="0.46"/>
</g>
<g style="mix-blend-mode:soft-light" filter="url(#filter0_f_1271_5668)">
<path d="M74 205.821C70.4 221.421 59.1667 229.988 54 232.321C44.1667 227.488 6 213.321 6 213.321C10.8333 208.821 21.4 196.421 25 182.821C29.5 165.821 40.5 141.821 58.5 139.321C72.9 137.321 101.167 145.154 113.5 149.321C87 169.821 78.5 186.321 74 205.821Z" fill="url(#paint5_linear_1271_5668)" fill-opacity="0.64"/>
</g>
</g>
<defs>
<filter id="filter0_f_1271_5668" x="-42" y="91" width="203.5" height="189.321" filterUnits="userSpaceOnUse" color-interpolation-filters="sRGB">
<feFlood flood-opacity="0" result="BackgroundImageFix"/>
<feBlend mode="normal" in="SourceGraphic" in2="BackgroundImageFix" result="shape"/>
<feGaussianBlur stdDeviation="24" result="effect1_foregroundBlur_1271_5668"/>
</filter>
<linearGradient id="paint0_linear_1271_5668" x1="76" y1="136.5" x2="123" y2="41.5" gradientUnits="userSpaceOnUse">
<stop stop-opacity="0.24"/>
<stop offset="0.59375"/>
</linearGradient>
<linearGradient id="paint1_linear_1271_5668" x1="106.5" y1="52" x2="209" y2="256.5" gradientUnits="userSpaceOnUse">
<stop stop-color="white"/>
<stop offset="1" stop-color="white" stop-opacity="0"/>
</linearGradient>
<linearGradient id="paint2_linear_1271_5668" x1="203.638" y1="200.985" x2="203.638" y2="349.485" gradientUnits="userSpaceOnUse">
<stop stop-opacity="0"/>
<stop offset="1"/>
</linearGradient>
<radialGradient id="paint3_radial_1271_5668" cx="0" cy="0" r="1" gradientUnits="userSpaceOnUse" gradientTransform="translate(218.5 80.5) rotate(24.5672) scale(76.9675 121.298)">
<stop stop-color="white"/>
<stop offset="1" stop-color="white" stop-opacity="0"/>
</radialGradient>
<linearGradient id="paint4_linear_1271_5668" x1="85" y1="138" x2="37" y2="231" gradientUnits="userSpaceOnUse">
<stop stop-color="white"/>
<stop offset="0.421875" stop-color="#E3E3E3" stop-opacity="0.627968"/>
<stop offset="0.765625" stop-color="#636363" stop-opacity="0.32483"/>
<stop offset="1" stop-color="white" stop-opacity="0"/>
</linearGradient>
<linearGradient id="paint5_linear_1271_5668" x1="85" y1="139" x2="37" y2="232" gradientUnits="userSpaceOnUse">
<stop stop-color="white"/>
<stop offset="0.421875" stop-color="#E3E3E3" stop-opacity="0.627968"/>
<stop offset="0.765625" stop-color="#636363" stop-opacity="0.32483"/>
<stop offset="1" stop-color="white" stop-opacity="0"/>
</linearGradient>
</defs>
</svg>
