<svg width="312" height="312" viewBox="0 0 312 312" fill="none" xmlns="http://www.w3.org/2000/svg">
<mask id="mask0_1271_5695" style="mask-type:alpha" maskUnits="userSpaceOnUse" x="0" y="0" width="312" height="312">
<rect width="312" height="312" rx="40" fill="#C4C4C4"/>
</mask>
<g mask="url(#mask0_1271_5695)">
<g filter="url(#filter0_d_1271_5695)">
<g filter="url(#filter1_i_1271_5695)">
<path d="M24.9519 46.3316C24.5736 44.9625 25.9602 43.4619 27.4661 43.6107L221.632 62.8038C225.931 63.2288 229.266 65.9158 230.346 69.8246L285.068 267.884C285.447 269.253 284.06 270.754 282.554 270.605L86.0667 251.182C83.2006 250.899 80.9771 249.108 80.2572 246.502L24.9519 46.3316Z" fill="#D3BDFF"/>
</g>
<g filter="url(#filter2_d_1271_5695)">
<path d="M41.415 53.6526L217.035 71.0124C219.892 71.2949 222.112 73.0769 222.838 75.6719L272.508 253.132L92.2606 235.315L41.415 53.6526Z" fill="white"/>
<path d="M41.415 53.6526L217.035 71.0124C219.892 71.2949 222.112 73.0769 222.838 75.6719L272.508 253.132L92.2606 235.315L41.415 53.6526Z" fill="url(#paint0_linear_1271_5695)" fill-opacity="0.2"/>
</g>
<path d="M140.394 143.241C143.069 138.15 149.046 128.833 151.557 132.291C154.697 136.614 147.545 139.928 159.739 136.378C171.933 132.829 168.053 136.202 175.551 137.98C183.049 139.758 175.073 137.151 197.426 138.874C215.309 140.251 223.591 136.729 225.497 134.795" stroke="#292B2D" stroke-width="3" stroke-linecap="round"/>
<rect x="1.85017" y="1.31985" width="24.8895" height="24.5475" transform="matrix(1.01329 -0.0264294 0.220152 0.906332 84.8223 127.22)" stroke="#91919F" stroke-width="3"/>
<path d="M91.3222 136.222C93.7482 140.822 99.8693 148.9 104.946 144.414C111.291 138.807 115.392 121.89 127.16 120.566" stroke="#FCAC12" stroke-width="6" stroke-linecap="round" stroke-linejoin="round"/>
<path d="M146.805 172.224C149.592 167.173 154.9 168.701 159.719 168.225C167.289 167.478 162.853 158.99 170.145 160.786C178.497 162.843 174.529 165.751 181.956 167.694C189.383 169.638 181.5 166.853 203.727 169.057C221.509 170.82 229.845 167.462 231.791 165.563" stroke="#292B2D" stroke-width="3" stroke-linecap="round"/>
<rect x="1.87515" y="1.31051" width="24.8895" height="24.5556" transform="matrix(1.01329 -0.0264294 0.23681 0.900101 94.5734 159.998)" stroke="#91919F" stroke-width="3"/>
<path d="M155.727 205.317C158.915 200.484 164.055 202.435 168.877 202.343C176.453 202.198 175.139 203.501 182.226 205.879C190.343 208.602 183.783 201.045 190.992 203.582C198.201 206.118 190.609 202.703 212.486 206.677C229.988 209.857 238.542 207.16 240.631 205.414" stroke="#292B2D" stroke-width="3" stroke-linecap="round"/>
<rect x="1.87515" y="1.31051" width="24.8895" height="24.5556" transform="matrix(1.01329 -0.0264294 0.23681 0.900101 103.491 193.387)" stroke="#91919F" stroke-width="3"/>
<path d="M96.1256 94.9529C96.113 94.8665 96.1512 94.8361 96.2402 94.8618C96.3459 94.8668 96.4334 94.8602 96.5029 94.8421C96.2135 94.6566 95.9789 94.42 95.7991 94.1324C95.6095 93.8229 95.3652 93.5644 95.0659 93.357C95.0699 93.2498 95.0607 93.1421 95.0383 93.0337C95.0423 92.9265 95.1417 92.8883 95.3364 92.919C95.0423 92.4328 94.8553 91.9838 94.7754 91.5722C94.6956 91.1605 94.6783 90.7733 94.7236 90.4105C94.7953 90.0489 94.8984 89.6996 95.0327 89.3625C95.1837 89.0048 95.3215 88.6464 95.446 88.2874C95.6643 88.2548 95.8193 88.2836 95.9112 88.3739C95.9933 88.4422 96.076 88.4246 96.1593 88.3212C96.4745 88.1001 96.6479 87.8507 96.6794 87.5731C96.7012 87.2736 96.634 86.9484 96.4778 86.5975C96.4616 86.0386 96.4768 85.492 96.5232 84.9575C96.5863 84.4023 96.7086 83.8929 96.89 83.4293C97.0714 82.9656 97.3085 82.569 97.6013 82.2395C97.8844 81.888 98.2461 81.6261 98.6866 81.4538C98.9392 81.2082 99.2941 80.9889 99.7511 80.796C100.235 80.6043 100.769 80.4686 101.354 80.3891C101.956 80.2889 102.6 80.2551 103.287 80.2877C103.964 80.2984 104.622 80.3834 105.262 80.5426C105.414 80.5927 105.483 80.5745 105.471 80.4881C105.448 80.3797 105.49 80.328 105.596 80.333C106.975 80.5273 108.248 80.8025 109.415 81.1585C110.608 81.5157 111.697 81.986 112.681 82.5694C113.476 83.2512 114.268 83.9865 115.059 84.7754C115.84 85.5424 116.535 86.3482 117.144 87.1929C117.77 88.0169 118.264 88.8669 118.629 89.7429C118.993 90.6188 119.159 91.4854 119.127 92.3426C118.632 93.2636 117.856 93.9888 116.799 94.5182C115.732 95.0257 114.52 95.4404 113.164 95.7623C111.824 96.0636 110.389 96.296 108.859 96.4594C107.355 96.6241 105.9 96.8126 104.495 97.025C104.785 97.6183 105.068 98.2543 105.345 98.9329C105.611 99.5896 105.817 100.254 105.961 100.926C106.122 101.578 106.198 102.215 106.191 102.837C106.21 103.461 106.104 104.035 105.873 104.561C105.334 104.514 104.799 104.531 104.267 104.613C103.761 104.697 103.308 104.783 102.908 104.871C102.648 104.751 102.387 104.631 102.127 104.512C101.903 104.415 101.641 104.349 101.341 104.313C101.303 104.054 101.102 103.776 100.737 103.48C100.399 103.185 100.052 102.9 99.697 102.625C99.3588 102.33 99.0914 102.049 98.895 101.782C98.7152 101.495 98.7614 101.25 99.0336 101.048C98.7539 100.885 98.5408 100.638 98.3943 100.309C98.5391 100.402 98.6907 100.452 98.8492 100.46C98.6206 100.063 98.4634 99.5935 98.3778 99.0528C98.3186 98.5133 98.2246 97.9829 98.0959 97.4616C97.9839 96.9196 97.7906 96.4274 97.516 95.985C97.2317 95.5207 96.7683 95.1767 96.1256 94.9529ZM103 87.7446C103.002 87.9808 103.007 88.1958 103.016 88.3894C103.041 88.5623 103.048 88.7236 103.037 88.8734C103.027 89.0231 103.002 89.1723 102.965 89.3208C102.954 89.4705 102.94 89.6416 102.922 89.8339C103.034 89.968 103.183 90.0717 103.371 90.1451C103.559 90.2184 103.708 90.3221 103.82 90.4562C104.121 90.3202 104.442 90.2282 104.783 90.1799C105.114 90.1098 105.454 90.0615 105.804 90.0353C106.155 90.009 106.5 89.9717 106.841 89.9235C107.181 89.8753 107.515 89.7838 107.843 89.6491C108.171 89.5144 108.527 89.4132 108.91 89.3456C109.311 89.2573 109.698 89.1683 110.072 89.0788C110.445 88.9892 110.801 88.888 111.139 88.7752C111.467 88.6406 111.722 88.4595 111.905 88.2321C111.409 87.9294 110.742 87.6508 109.904 87.3964C109.067 87.1419 108.203 86.9721 107.311 86.8868C106.437 86.7809 105.598 86.7839 104.794 86.896C104.017 87.0094 103.419 87.2923 103 87.7446Z" fill="#292B2D"/>
<path d="M136.349 105.59C135.698 105.752 134.98 105.911 134.196 106.067C133.412 106.223 132.584 106.281 131.713 106.239C130.392 106.177 129.226 105.853 128.216 105.268C127.977 105.021 127.785 104.85 127.64 104.758C127.522 104.666 127.403 104.575 127.285 104.483C127.183 104.371 127.08 104.227 126.976 104.05C126.522 103.728 126.115 103.365 125.754 102.962C125.384 102.536 125.066 102.113 124.801 101.693C124.553 101.252 124.345 100.812 124.176 100.375C124.033 99.9388 123.94 99.5265 123.896 99.138C123.91 99.0528 123.898 98.9664 123.858 98.8786C123.846 98.7922 123.828 98.6947 123.806 98.5863C123.755 98.2405 123.71 97.9056 123.669 97.5816C123.654 97.2589 123.699 96.982 123.803 96.7508C123.61 96.5484 123.512 96.3291 123.51 96.0929C123.508 95.8566 123.53 95.643 123.574 95.4519C123.573 94.6361 123.564 93.9487 123.548 93.3898C123.548 92.8102 123.554 92.2416 123.564 91.6839C123.573 90.7184 123.562 89.7625 123.528 88.8164C123.495 87.8703 123.388 86.8455 123.206 85.7421C123.369 85.6425 123.493 85.5732 123.579 85.5344C123.718 85.4981 123.836 85.4714 123.932 85.4545C124.495 85.6745 125.138 85.8982 125.86 86.1257C126.572 86.3313 127.139 86.4441 127.562 86.4642C127.822 86.5839 127.993 86.6779 128.075 86.7462C128.147 86.7925 128.22 86.8389 128.292 86.8853C128.71 87.1842 129.093 87.4922 129.441 87.8093C129.779 88.1044 130.016 88.4913 130.151 88.97C130.081 89.1599 130.006 89.2529 129.927 89.2492C129.99 89.6815 130.011 90.0474 129.989 90.3469C129.993 90.6477 129.985 90.9478 129.963 91.2473C129.925 91.5675 129.899 91.8883 129.887 92.2097C129.875 92.5312 129.924 92.9306 130.033 93.4081C129.976 93.5127 129.941 93.6076 129.927 93.6929C129.94 93.7793 129.944 93.8761 129.94 93.9833C129.936 94.0904 129.924 94.2079 129.903 94.3357C129.899 94.4429 129.851 94.5372 129.758 94.6186C129.932 95.185 130.005 95.6393 129.977 95.9814C129.974 96.3248 129.959 96.6675 129.93 97.0096C129.896 97.6306 129.889 98.2528 129.908 98.8762C129.953 99.5009 130.13 100.218 130.439 101.027C130.551 100.989 130.66 100.973 130.766 100.978C130.898 100.984 131.017 100.99 131.123 100.995C131.361 101.006 131.653 101.052 131.999 101.133C132.635 100.82 133.401 100.652 134.296 100.63C135.218 100.61 136.136 100.61 137.051 100.632C137.421 100.65 137.79 100.667 138.16 100.685C138.53 100.703 138.864 100.697 139.161 100.668C139.448 100.789 139.622 100.862 139.685 100.886C139.764 100.89 139.87 100.895 140.002 100.901C140.187 100.91 140.35 100.929 140.492 100.957C140.916 101.213 141.298 101.403 141.638 101.526C141.977 101.65 142.325 101.763 142.681 101.866C143.011 101.967 143.332 102.079 143.645 102.201C143.974 102.303 144.31 102.448 144.653 102.636L145.56 104.063C145.833 104.27 145.971 104.405 145.973 104.469C146.052 104.645 146.057 104.774 145.991 104.857L146.231 105.222C145.864 105.269 145.621 105.333 145.502 105.413C145.408 105.495 145.32 105.587 145.237 105.69C145.036 105.702 144.882 105.706 144.776 105.701C144.697 105.697 144.618 105.693 144.539 105.689C144.169 105.672 143.744 105.705 143.265 105.79C142.463 105.559 141.68 105.425 140.914 105.388C140.623 105.375 140.324 105.371 140.017 105.378C139.71 105.385 139.403 105.392 139.095 105.399C138.798 105.427 138.482 105.445 138.149 105.45C137.842 105.457 137.516 105.452 137.173 105.436L136.349 105.59Z" fill="#292B2D"/>
<path d="M169.038 104.792C169.045 105.158 168.979 105.53 168.837 105.91C168.713 106.269 168.508 106.592 168.222 106.879C167.952 107.145 167.611 107.365 167.197 107.539C166.783 107.712 166.303 107.797 165.758 107.792C165.386 107.71 165.114 107.622 164.942 107.528C164.807 107.457 164.659 107.386 164.498 107.314C164.399 107.266 164.305 107.229 164.216 107.204C164.144 107.157 164.076 107.122 164.014 107.098L163.465 106.91L163.433 106.49C163.408 106.317 163.336 106.185 163.218 106.094C163.09 105.98 162.868 105.83 162.552 105.643C162.443 105.574 162.335 105.504 162.226 105.435C162.118 105.365 162.022 105.296 161.94 105.228L160.988 104.571L161.956 104.392C162.548 104.269 162.896 104.093 163 103.862C163.13 103.632 163.042 103.23 162.735 102.658C162.168 102.545 161.714 102.512 161.373 102.561C161.059 102.61 160.737 102.67 160.406 102.74C159.979 102.827 159.534 102.903 159.072 102.966C158.625 103.01 158.112 103.017 157.531 102.99C157.319 102.98 157.121 102.97 156.936 102.962C156.742 102.931 156.534 102.9 156.313 102.868L155.887 102.783C155.727 102.539 155.615 102.405 155.553 102.381C155.48 102.334 155.408 102.288 155.336 102.242C155.155 102.126 154.946 101.976 154.709 101.793C154.489 101.59 154.356 101.347 154.308 101.066C154.088 100.862 153.921 100.661 153.806 100.462C153.765 100.718 153.768 100.986 153.816 101.268L153.804 101.589L153.437 101.636C153.394 101.656 153.379 101.709 153.391 101.795C153.394 101.86 153.406 101.914 153.425 101.958L153.476 102.507C153.443 102.549 153.409 102.59 153.376 102.632C153.333 102.651 153.295 102.681 153.262 102.723C153.297 102.918 153.318 103.112 153.327 103.305C153.336 103.499 153.339 103.682 153.338 103.853C153.333 104.132 153.341 104.412 153.363 104.692C153.4 104.951 153.491 105.213 153.635 105.477L153.637 105.832C153.564 105.957 153.468 106.06 153.348 106.14C153.219 106.198 153.09 106.257 152.96 106.315C152.927 106.356 152.867 106.396 152.781 106.435C152.712 106.453 152.656 106.472 152.613 106.492L152.655 106.848L152.209 106.891C151.938 106.921 151.741 106.944 151.619 106.959C151.523 106.976 151.395 106.981 151.237 106.974L150.826 106.922C150.448 106.711 150.155 106.546 149.947 106.429C149.73 106.29 149.492 106.161 149.232 106.041C148.877 105.767 148.657 105.563 148.572 105.43C148.487 105.297 148.406 105.175 148.331 105.065C148.22 104.93 148.145 104.819 148.106 104.732C148.04 104.643 147.971 104.575 147.899 104.529L147.208 104.11L147.512 103.834L147.303 103.277C147.333 102.183 147.409 101.135 147.531 100.132C147.68 99.1301 147.832 98.1069 147.987 97.0625C148.043 96.7216 148.084 96.3801 148.113 96.038C148.168 95.6972 148.223 95.3563 148.278 95.0154C148.223 94.9484 148.175 94.871 148.136 94.7833C148.097 94.6956 148.08 94.5981 148.084 94.491C148.208 94.132 148.299 93.8143 148.357 93.538C148.406 93.2397 148.454 92.9415 148.502 92.6432C148.547 92.2804 148.597 91.9286 148.653 91.5878C148.734 91.2482 148.864 90.9001 149.041 90.5436L149.572 90.3434C149.642 90.3253 149.725 90.3077 149.82 90.2908C149.907 90.252 150.016 90.2357 150.148 90.242L150.771 90.336C151.384 90.086 151.856 89.722 152.186 89.244C152.506 88.744 152.796 88.1459 153.055 87.4498L153.246 87.0081L153.878 87.2957C154.039 87.3678 154.254 87.4424 154.521 87.5195C154.778 87.5746 155.053 87.6414 155.347 87.7197C155.861 87.83 156.354 87.9501 156.826 88.0798C157.297 88.2095 157.714 88.3903 158.076 88.6222C158.39 88.9806 158.6 89.2482 158.705 89.4249C158.809 89.6016 158.927 89.7789 159.058 89.9568C159.303 90.3334 159.535 90.7094 159.754 91.0847C159.999 91.4613 160.238 91.8805 160.469 92.3423C160.767 92.7214 161.039 93.0993 161.284 93.4759C161.546 93.8318 161.8 94.198 162.045 94.5746C162.411 95.1072 162.773 95.6289 163.13 96.1396C163.476 96.6283 163.853 97.097 164.26 97.5457C164.471 97.5557 164.608 97.573 164.671 97.5974C164.783 97.5598 164.901 97.5332 165.023 97.5175C165.172 97.5031 165.334 97.4894 165.509 97.4762L165.93 97.464L166.235 97.8005C166.31 97.9114 166.491 98.0274 166.778 98.1483C167.131 98.1865 167.411 98.2643 167.618 98.3814C167.816 98.4767 168.005 98.5823 168.186 98.6982C168.331 98.791 168.466 98.8618 168.591 98.9106L169.273 99.1363L169.176 99.6146C169.088 99.9969 168.875 100.362 168.54 100.711C168.22 101.04 167.811 101.31 167.311 101.522C167.396 101.655 167.467 101.788 167.526 101.919C167.601 102.03 167.694 102.153 167.806 102.287C168.051 102.663 168.288 103.05 168.517 103.447C168.745 103.845 168.926 104.25 169.059 104.665L169.038 104.792ZM155.053 98.5573C155.826 98.5511 156.519 98.5411 157.134 98.5274C157.765 98.4929 158.447 98.4288 159.181 98.3348C158.703 97.6681 158.203 96.9789 157.679 96.267C157.145 95.5333 156.603 94.8098 156.053 94.0968L155.962 94.4144C155.639 94.8499 155.353 95.3408 155.105 95.8871C154.883 96.4348 154.713 96.9526 154.594 97.4407C154.524 97.6306 154.453 97.8204 154.382 98.0103C154.312 98.2001 154.254 98.3906 154.21 98.5817C154.359 98.5673 154.499 98.5632 154.631 98.5695C154.79 98.577 154.93 98.573 155.053 98.5573Z" fill="#292B2D"/>
<path d="M179.964 102.156C179.745 102.188 179.627 102.301 179.61 102.493C179.582 102.664 179.559 102.845 179.542 103.037C179.55 103.231 179.541 103.413 179.513 103.583C179.502 103.733 179.404 103.804 179.22 103.795C179.271 103.969 179.26 104.119 179.187 104.244C179.14 104.371 179.098 104.508 179.06 104.657C179.013 104.783 179.002 104.933 179.028 105.106C179.043 105.257 179.153 105.445 179.356 105.669C179.203 105.79 179.154 105.971 179.209 106.209C179.263 106.448 179.3 106.675 179.318 106.891C179.363 107.108 179.34 107.289 179.25 107.435C179.16 107.581 178.899 107.633 178.466 107.591C178.426 107.675 178.437 107.729 178.5 107.753C178.563 107.778 178.636 107.857 178.721 107.989C178.411 107.932 178.192 107.932 178.062 107.99C177.969 108.072 177.822 108.118 177.62 108.13C177.06 107.975 176.535 107.725 176.045 107.379C175.581 107.035 175.13 106.66 174.69 106.252C174.267 105.824 173.856 105.397 173.46 104.97C173.089 104.545 172.743 104.174 172.422 103.858C172.393 103.621 172.304 103.391 172.154 103.169C171.993 102.926 171.813 102.724 171.613 102.564C171.891 100.345 172.221 97.9775 172.6 95.4625C172.98 92.9474 173.296 90.4615 173.546 88.0047C174.242 88.2309 174.939 88.4894 175.637 88.7802C176.352 89.0503 177.02 89.3611 177.642 89.7127C178.291 90.0655 178.884 90.4694 179.423 90.9243C179.952 91.3573 180.386 91.8395 180.726 92.3708C180.732 92.4999 180.691 92.5516 180.601 92.5259C180.529 92.4795 180.481 92.488 180.458 92.5513C180.612 92.666 180.699 92.7452 180.719 92.7891C180.765 92.8342 180.784 92.8781 180.777 92.9207C180.797 92.9645 180.826 93.0303 180.865 93.118C180.894 93.1838 180.978 93.2844 181.116 93.4198C181 93.3928 180.926 93.4 180.893 93.4414C180.886 93.484 180.807 93.4802 180.655 93.4301C180.868 93.6763 180.982 93.875 180.998 94.026C181.04 94.1782 181.05 94.3183 181.03 94.4461C180.999 94.552 180.992 94.6804 181.007 94.8314C181.013 94.9605 181.105 95.1366 181.281 95.3597C181.202 95.3559 181.146 95.3747 181.113 95.416C181.096 95.4367 181.084 95.4684 181.077 95.511C181.061 95.5316 181.036 95.5626 181.002 95.604C180.986 95.6247 180.933 95.6222 180.844 95.5965C181.138 96.0827 181.379 96.5665 181.568 97.0477C181.756 97.5289 181.949 98.0211 182.148 98.5242C182.362 99.0067 182.605 99.5227 182.876 100.072C183.136 100.6 183.473 101.153 183.885 101.73C184.631 101.315 185.12 100.759 185.353 100.061C185.612 99.365 185.713 98.5755 185.656 97.6927C185.625 96.8111 185.473 95.8593 185.199 94.8373C184.925 93.8154 184.654 92.7721 184.387 91.7075C184.537 91.5215 184.615 91.289 184.62 91.0102C184.625 90.7313 184.612 90.4409 184.581 90.1389C184.54 89.815 184.504 89.502 184.473 89.2C184.432 88.876 184.432 88.5862 184.474 88.3306C184.89 88.3933 185.269 88.5186 185.611 88.7066C185.97 88.8739 186.312 89.0619 186.638 89.2706C186.954 89.4574 187.283 89.6447 187.625 89.8327C187.957 89.9988 188.332 90.1132 188.747 90.1758C189.23 90.5637 189.682 90.9394 190.102 91.3028C190.523 91.6663 190.86 92.0473 191.116 92.4458C191.062 92.6149 191.044 92.8073 191.062 93.0229C191.107 93.2396 191.139 93.4558 191.157 93.6714C191.175 93.8869 191.163 94.0902 191.118 94.2813C191.064 94.4505 190.948 94.5952 190.769 94.7155C190.943 95.282 191.072 95.8033 191.155 96.2795C191.254 96.735 191.34 97.1899 191.413 97.6442C191.513 98.0997 191.635 98.5778 191.78 99.0785C191.916 99.5572 192.129 100.093 192.419 100.687C192.432 101.181 192.447 101.708 192.463 102.267C192.479 102.825 192.524 103.332 192.597 103.786C192.301 104.051 192.122 104.376 192.06 104.759C191.998 105.142 191.923 105.525 191.835 105.908C191.768 105.99 191.712 106.009 191.666 105.964C191.62 105.919 191.513 105.882 191.345 105.852C191.41 105.941 191.439 106.007 191.432 106.049C191.426 106.092 191.406 106.134 191.372 106.175C191.356 106.196 191.349 106.239 191.352 106.303C191.381 106.369 191.446 106.458 191.548 106.57C191.237 106.684 190.99 106.855 190.806 107.082C190.623 107.31 190.404 107.514 190.148 107.695C189.919 107.877 189.582 107.99 189.135 108.033C188.716 108.078 188.087 107.973 187.25 107.718C185.874 107.009 184.573 106.207 183.347 105.311C182.147 104.417 181.019 103.365 179.964 102.156Z" fill="#292B2D"/>
<g filter="url(#filter3_i_1271_5695)">
<path d="M82.1513 43.9007C80.3117 38.3946 85.9218 32.0771 92.1079 32.6886L155.515 38.9564C166.458 40.0381 175.099 46.6241 178.353 56.3641L181.378 65.419C183.218 70.9251 177.608 77.2426 171.422 76.6312L108.014 70.3634C97.0711 69.2817 88.4308 62.6957 85.1766 52.9557L82.1513 43.9007Z" fill="#8F57FF"/>
</g>
</g>
</g>
<defs>
<filter id="filter0_d_1271_5695" x="-23.1111" y="16.6475" width="356.242" height="333.968" filterUnits="userSpaceOnUse" color-interpolation-filters="sRGB">
<feFlood flood-opacity="0" result="BackgroundImageFix"/>
<feColorMatrix in="SourceAlpha" type="matrix" values="0 0 0 0 0 0 0 0 0 0 0 0 0 0 0 0 0 0 127 0" result="hardAlpha"/>
<feOffset dy="32"/>
<feGaussianBlur stdDeviation="24"/>
<feColorMatrix type="matrix" values="0 0 0 0 0 0 0 0 0 0 0 0 0 0 0 0 0 0 0.08 0"/>
<feBlend mode="normal" in2="BackgroundImageFix" result="effect1_dropShadow_1271_5695"/>
<feBlend mode="normal" in="SourceGraphic" in2="effect1_dropShadow_1271_5695" result="shape"/>
</filter>
<filter id="filter1_i_1271_5695" x="24.8889" y="43.6003" width="263.242" height="227.015" filterUnits="userSpaceOnUse" color-interpolation-filters="sRGB">
<feFlood flood-opacity="0" result="BackgroundImageFix"/>
<feBlend mode="normal" in="SourceGraphic" in2="BackgroundImageFix" result="shape"/>
<feColorMatrix in="SourceAlpha" type="matrix" values="0 0 0 0 0 0 0 0 0 0 0 0 0 0 0 0 0 0 127 0" result="hardAlpha"/>
<feOffset dx="3"/>
<feGaussianBlur stdDeviation="4"/>
<feComposite in2="hardAlpha" operator="arithmetic" k2="-1" k3="1"/>
<feColorMatrix type="matrix" values="0 0 0 0 0.831373 0 0 0 0 0.443137 0 0 0 0 0.168627 0 0 0 0.24 0"/>
<feBlend mode="normal" in2="shape" result="effect1_innerShadow_1271_5695"/>
</filter>
<filter id="filter2_d_1271_5695" x="40.415" y="53.6526" width="232.093" height="205.479" filterUnits="userSpaceOnUse" color-interpolation-filters="sRGB">
<feFlood flood-opacity="0" result="BackgroundImageFix"/>
<feColorMatrix in="SourceAlpha" type="matrix" values="0 0 0 0 0 0 0 0 0 0 0 0 0 0 0 0 0 0 127 0" result="hardAlpha"/>
<feOffset dx="-1" dy="6"/>
<feColorMatrix type="matrix" values="0 0 0 0 0.9125 0 0 0 0 0.9125 0 0 0 0 0.9125 0 0 0 1 0"/>
<feBlend mode="normal" in2="BackgroundImageFix" result="effect1_dropShadow_1271_5695"/>
<feBlend mode="normal" in="SourceGraphic" in2="effect1_dropShadow_1271_5695" result="shape"/>
</filter>
<filter id="filter3_i_1271_5695" x="81.7964" y="24.6475" width="106.937" height="52.0249" filterUnits="userSpaceOnUse" color-interpolation-filters="sRGB">
<feFlood flood-opacity="0" result="BackgroundImageFix"/>
<feBlend mode="normal" in="SourceGraphic" in2="BackgroundImageFix" result="shape"/>
<feColorMatrix in="SourceAlpha" type="matrix" values="0 0 0 0 0 0 0 0 0 0 0 0 0 0 0 0 0 0 127 0" result="hardAlpha"/>
<feOffset dx="7" dy="-9"/>
<feGaussianBlur stdDeviation="4"/>
<feComposite in2="hardAlpha" operator="arithmetic" k2="-1" k3="1"/>
<feColorMatrix type="matrix" values="0 0 0 0 0.466447 0 0 0 0 0.260087 0 0 0 0 0.879167 0 0 0 1 0"/>
<feBlend mode="overlay" in2="shape" result="effect1_innerShadow_1271_5695"/>
</filter>
<linearGradient id="paint0_linear_1271_5695" x1="127.891" y1="24.2613" x2="207.801" y2="252.366" gradientUnits="userSpaceOnUse">
<stop stop-opacity="0.04"/>
<stop offset="1" stop-opacity="0"/>
</linearGradient>
</defs>
</svg>
