<svg width="32" height="32" viewBox="0 0 32 32" fill="none" xmlns="http://www.w3.org/2000/svg">
<path d="M23 14H9C7.67392 14 6.40215 14.5268 5.46447 15.4645C4.52678 16.4021 4 17.6739 4 19V25C4 26.3261 4.52678 27.5979 5.46447 28.5355C6.40215 29.4732 7.67392 30 9 30H23C24.3261 30 25.5979 29.4732 26.5355 28.5355C27.4732 27.5979 28 26.3261 28 25V19C28 17.6739 27.4732 16.4021 26.5355 15.4645C25.5979 14.5268 24.3261 14 23 14ZM16 26C15.2089 26 14.4355 25.7654 13.7777 25.3259C13.1199 24.8864 12.6072 24.2616 12.3045 23.5307C12.0017 22.7998 11.9225 21.9956 12.0769 21.2196C12.2312 20.4437 12.6122 19.731 13.1716 19.1716C13.731 18.6122 14.4437 18.2312 15.2196 18.0769C15.9956 17.9225 16.7998 18.0017 17.5307 18.3045C18.2616 18.6072 18.8864 19.1199 19.3259 19.7777C19.7654 20.4355 20 21.2089 20 22C20 23.0609 19.5786 24.0783 18.8284 24.8284C18.0783 25.5786 17.0609 26 16 26Z" fill="black"/>
<path d="M16 24C17.1046 24 18 23.1046 18 22C18 20.8954 17.1046 20 16 20C14.8954 20 14 20.8954 14 22C14 23.1046 14.8954 24 16 24Z" fill="black"/>
<path d="M16 2C15.7348 2 15.4804 2.10536 15.2929 2.29289C15.1054 2.48043 15 2.73478 15 3V8.59L12.46 6.05C12.2687 5.88617 12.0226 5.80057 11.7709 5.81029C11.5193 5.82001 11.2805 5.92434 11.1024 6.10244C10.9243 6.28053 10.82 6.51927 10.8103 6.77095C10.8006 7.02262 10.8862 7.2687 11.05 7.46L15.29 11.71C15.3821 11.8 15.4908 11.8713 15.61 11.92C15.7334 11.9723 15.866 11.9992 16 11.9992C16.134 11.9992 16.2666 11.9723 16.39 11.92C16.5092 11.8713 16.6178 11.8 16.71 11.71L21 7.46C21.1638 7.2687 21.2494 7.02262 21.2397 6.77095C21.23 6.51927 21.1257 6.28053 20.9476 6.10244C20.7695 5.92434 20.5307 5.82001 20.279 5.81029C20.0274 5.80057 19.7813 5.88617 19.59 6.05L17 8.59V3C17 2.73478 16.8946 2.48043 16.7071 2.29289C16.5196 2.10536 16.2652 2 16 2Z" fill="black"/>
</svg>
