<svg width="24" height="27" viewBox="0 0 24 27" fill="none" xmlns="http://www.w3.org/2000/svg">
<path d="M23 22C22.7348 22 22.4804 22.1054 22.2929 22.2929C22.1054 22.4804 22 22.7348 22 23C21.9986 23.3507 21.905 23.6949 21.7286 23.9981C21.5521 24.3012 21.2991 24.5526 20.9948 24.7271C20.6906 24.9015 20.3458 24.9929 19.995 24.992C19.6443 24.9912 19.3 24.8981 18.9966 24.7221C18.6932 24.5461 18.4414 24.2935 18.2665 23.9895C18.0916 23.6855 17.9997 23.3408 18 22.9901C18.0004 22.6393 18.0929 22.2949 18.2685 21.9912C18.444 21.6875 18.6963 21.4354 19 21.26C18.9719 21.4653 19.0083 21.6743 19.1042 21.858C19.2001 22.0418 19.3506 22.1912 19.5351 22.2856C19.7196 22.38 19.9288 22.4148 20.1339 22.3852C20.339 22.3555 20.5298 22.2628 20.68 22.12L22.09 20.71C22.1837 20.617 22.2581 20.5064 22.3089 20.3846C22.3597 20.2627 22.3858 20.132 22.3858 20C22.3858 19.868 22.3597 19.7373 22.3089 19.6154C22.2581 19.4936 22.1837 19.383 22.09 19.29L20.68 17.88C20.587 17.7863 20.4764 17.7119 20.3546 17.6611C20.2327 17.6104 20.102 17.5842 19.97 17.5842C19.838 17.5842 19.7073 17.6104 19.5854 17.6611C19.4636 17.7119 19.353 17.7863 19.26 17.88C19.1082 18.0393 19.0132 18.2442 18.9897 18.463C18.9662 18.6817 19.0155 18.9021 19.13 19.09C18.3945 19.2539 17.7202 19.6223 17.1848 20.1526C16.6495 20.683 16.2749 21.3538 16.1041 22.0877C15.9333 22.8217 15.9733 23.589 16.2195 24.3012C16.4657 25.0134 16.9081 25.6416 17.4958 26.1133C18.0834 26.5851 18.7923 26.8813 19.5409 26.9678C20.2895 27.0543 21.0473 26.9276 21.727 26.6022C22.4067 26.2769 22.9807 25.7661 23.3828 25.1288C23.785 24.4915 23.9989 23.7536 24 23C24 22.7348 23.8946 22.4804 23.7071 22.2929C23.5196 22.1054 23.2652 22 23 22Z" fill="black"/>
<path d="M18.58 2.53001C18.1448 2.26116 17.648 2.10809 17.1369 2.08534C16.6258 2.06259 16.1174 2.17091 15.66 2.40001L15.36 2.55001C15.2311 2.60796 15.0913 2.63792 14.95 2.63792C14.8087 2.63792 14.6689 2.60796 14.54 2.55001L11.11 1.21001C10.3972 0.926133 9.60278 0.926133 8.89 1.21001L5.46 2.58001C5.33108 2.63796 5.19134 2.66792 5.05 2.66792C4.90866 2.66792 4.76892 2.63796 4.64 2.58001L4.34 2.43001C3.88519 2.20291 3.38014 2.09511 2.87224 2.11672C2.36435 2.13834 1.87028 2.28866 1.43641 2.55358C1.00254 2.8185 0.643112 3.18933 0.391856 3.63125C0.1406 4.07317 0.0057622 4.57169 0 5.08001V20C0 21.3261 0.526784 22.5979 1.46447 23.5355C2.40215 24.4732 3.67392 25 5 25H14.38C14.136 24.3611 14.0073 23.6839 14 23V22.92C14.0016 21.843 14.2931 20.7864 14.8438 19.8609C15.3946 18.9354 16.1842 18.1752 17.13 17.66C17.2689 17.1773 17.5268 16.7372 17.88 16.38L18 16.27C18.1894 16.1032 18.3974 15.9589 18.62 15.84C18.9872 15.6535 19.3889 15.5445 19.8 15.52H20V5.08001C20 4.56923 19.8695 4.06692 19.621 3.62067C19.3725 3.17443 19.0142 2.79901 18.58 2.53001ZM12 18H6C5.73478 18 5.48043 17.8946 5.29289 17.7071C5.10536 17.5196 5 17.2652 5 17C5 16.7348 5.10536 16.4804 5.29289 16.2929C5.48043 16.1054 5.73478 16 6 16H12C12.2652 16 12.5196 16.1054 12.7071 16.2929C12.8946 16.4804 13 16.7348 13 17C13 17.2652 12.8946 17.5196 12.7071 17.7071C12.5196 17.8946 12.2652 18 12 18ZM14 12H6C5.73478 12 5.48043 11.8946 5.29289 11.7071C5.10536 11.5196 5 11.2652 5 11C5 10.7348 5.10536 10.4804 5.29289 10.2929C5.48043 10.1054 5.73478 10 6 10H14C14.2652 10 14.5196 10.1054 14.7071 10.2929C14.8946 10.4804 15 10.7348 15 11C15 11.2652 14.8946 11.5196 14.7071 11.7071C14.5196 11.8946 14.2652 12 14 12Z" fill="black"/>
</svg>
